<?xml version="1.0" encoding="utf-8"?>
<!-- Generator: Adobe Illustrator 27.0.1, SVG Export Plug-In . SVG Version: 6.00 Build 0)  -->
<svg version="1.1" id="Layer_1" xmlns="http://www.w3.org/2000/svg" xmlns:xlink="http://www.w3.org/1999/xlink" x="0px" y="0px"
	 viewBox="0 0 80.9 52.4" style="enable-background:new 0 0 80.9 52.4;" xml:space="preserve">
<style type="text/css">
	.st0{fill:#FFFFFF;fill-opacity:1.000000e-02;}
	.st1{fill:#2F88FF;stroke:#000000;stroke-width:4;stroke-linecap:round;stroke-linejoin:round;}
</style>
<g>
	<g>
		<rect x="30.1" y="2" class="st0" width="48" height="48"/>
		<ellipse class="st1" cx="54.1" cy="13" rx="20" ry="6"/>
		<path class="st1" d="M40.8,17.5c-4.2,1.1-6.8,2.7-6.8,4.5c0,3.3,9,6,20,6s20-2.7,20-6c0-1.8-2.6-3.4-6.8-4.5
			c-3.5,0.9-8.2,1.5-13.2,1.5S44.4,18.5,40.8,17.5z"/>
		<path class="st1" d="M40.8,26.5c-4.2,1.1-6.8,2.7-6.8,4.5c0,3.3,9,6,20,6s20-2.7,20-6c0-1.8-2.6-3.4-6.8-4.5
			c-3.5,0.9-8.2,1.5-13.2,1.5S44.4,27.5,40.8,26.5z"/>
		<path class="st1" d="M40.8,35.5c-4.2,1.1-6.8,2.7-6.8,4.5c0,3.3,9,6,20,6s20-2.7,20-6c0-1.8-2.6-3.4-6.8-4.5
			c-3.5,0.9-8.2,1.5-13.2,1.5S44.4,36.5,40.8,35.5z"/>
	</g>
	<path d="M49.5,1H35.2c-2,0-3.6,1.6-3.6,3.6v43.2c0,2,1.6,3.6,3.6,3.6h14.4c2,0,3.6-1.6,3.6-3.6V4.6C53.1,2.6,51.5,1,49.5,1z
		 M49.5,4.6v12.6H35.2V4.6H49.5z M49.5,20.8v10.8H35.2V20.8H49.5z M35.2,47.8V35.2h14.4v12.6H35.2z"/>
	<polygon points="20.8,24.4 17.2,24.4 17.2,20.8 13.6,20.8 13.6,24.4 10,24.4 10,28 13.6,28 13.6,31.6 17.2,31.6 17.2,28 20.8,28 	
		"/>
	<path d="M28,8.2V4.6H17.2c-2,0-3.6,1.6-3.6,3.6v5.5C6.7,14.7,1.9,21.1,2.9,28c0.8,5.5,5.1,9.9,10.7,10.7v5.5c0,2,1.6,3.6,3.6,3.6
		H28v-3.6H17.2v-5.5c6.9-1,11.6-7.3,10.7-14.2c-0.8-5.5-5.1-9.9-10.7-10.7V8.2H28z M24.4,26.2c0,5-4,9-9,9s-9-4-9-9s4-9,9-9
		C20.3,17.2,24.4,21.2,24.4,26.2z"/>
</g>
</svg>
