<?xml version="1.0" encoding="utf-8"?>
<!-- Generator: Adobe Illustrator 27.0.1, SVG Export Plug-In . SVG Version: 6.00 Build 0)  -->
<svg version="1.1" id="Layer_1" xmlns="http://www.w3.org/2000/svg" xmlns:xlink="http://www.w3.org/1999/xlink" x="0px" y="0px"
	 viewBox="0 0 503.6 503.6" style="enable-background:new 0 0 503.6 503.6;" xml:space="preserve">
<style type="text/css">
	.st0{fill:#2365F7;}
	.st1{fill:#FFFFFF;}
	.st2{fill:#F9F9F9;}
</style>
<g>
	<ellipse transform="matrix(0.3827 -0.9239 0.9239 0.3827 28.62 160.3428)" class="st0" cx="134.3" cy="58.8" rx="16.8" ry="16.8"/>
	<ellipse transform="matrix(0.9871 -0.1602 0.1602 0.9871 -8.6528 10.17)" class="st0" cx="58.8" cy="58.8" rx="16.8" ry="16.8"/>
	<circle class="st0" cx="209.8" cy="58.8" r="16.8"/>
	<path class="st0" d="M479.5,0H24.1C10.8,0,0,10.8,0,24.1v76.6h503.6V24.1C503.6,10.8,492.8,0,479.5,0z M58.8,92.3
		c-18.5,0-33.6-15.1-33.6-33.6s15.1-33.6,33.6-33.6c18.5,0,33.6,15.1,33.6,33.6S77.3,92.3,58.8,92.3z M134.3,92.3
		c-18.5,0-33.6-15.1-33.6-33.6s15.1-33.6,33.6-33.6c18.5,0,33.6,15.1,33.6,33.6S152.8,92.3,134.3,92.3z M209.8,92.3
		c-18.5,0-33.6-15.1-33.6-33.6s15.1-33.6,33.6-33.6s33.6,15.1,33.6,33.6S228.4,92.3,209.8,92.3z"/>
	<path class="st0" d="M0,476.9c0,14.8,12,26.8,26.8,26.8h450.1c14.7,0,26.8-12,26.8-26.8V117.5H0V476.9z"/>
</g>
<g>
	<path class="st1" d="M210.6,344.4c1.6,1.6,2.4,3.9,2.2,6.2c-0.5,5.2-1.6,10.4-3.1,15.5c10.8-2.5,17.4-5.4,20.4-6.9
		c1.7-0.9,3.7-1.1,5.5-0.6c5.3,1.4,10.7,2.1,16.2,2.1c30.9,0,54.2-21.7,54.2-46.5c0-24.7-23.3-46.5-54.2-46.5s-54.2,21.7-54.2,46.5
		C197.6,325.6,202.4,336.2,210.6,344.4z M206.8,374.7c-1.8,0.4-3.7,0.7-5.5,1c-1.5,0.2-2.7-1.4-2.1-2.8c0.7-1.6,1.3-3.3,1.9-4.9
		l0-0.1c1.9-5.6,3.5-12,4.1-18c-9.5-9.5-15.3-22-15.3-35.6c0-29.9,27.7-54.2,62-54.2s62,24.3,62,54.2c0,29.9-27.7,54.2-62,54.2
		c-6.1,0-12.2-0.8-18.2-2.4C229.6,368.2,220.9,371.9,206.8,374.7z"/>
	<path class="st1" d="M246.4,304.7c-3.8-6-11.8-7.7-17.8-3.9c-3.7,2.4-5.9,6.5-5.9,10.9c0,7.1,5.8,12.9,12.9,12.9
		c2.4,0,4.8-0.7,6.9-2c-1,3-2.9,6.2-6,9.4c-1.2,1.3-1.2,3.3,0.1,4.6c1.3,1.2,3.3,1.2,4.6-0.1C252.6,324.6,251.2,311.6,246.4,304.7
		L246.4,304.7z M277.4,304.7c-3.8-6-11.8-7.7-17.8-3.9c-3.7,2.4-5.9,6.5-5.9,10.9c0,7.1,5.8,12.9,12.9,12.9c2.4,0,4.8-0.7,6.9-2
		c-1,3-2.9,6.2-6,9.4c-1.2,1.3-1.2,3.3,0.1,4.6c1.3,1.2,3.3,1.2,4.6-0.1C283.6,324.6,282.1,311.6,277.4,304.7L277.4,304.7z"/>
</g>
<g>
	<g>
		<g>
			<path class="st2" d="M20.9,192l54.4-26.4v10.3L32.2,196v0.2l43.1,20.2v10.2l-54.4-26.3V192z"/>
			<path class="st2" d="M83.2,231.2l28-83.2h9.9l-28,83.2H83.2z"/>
			<path class="st2" d="M182.3,200.5l-54.4,26.1v-10.2l43.8-20.2V196l-43.8-20.2v-10.2l54.4,26.1L182.3,200.5L182.3,200.5z"/>
		</g>
		<g>
			<path class="st2" d="M314.5,436.1l56.7-27.5v10.7l-44.9,20.9v0.2l44.9,21v10.7l-56.6-27.5V436.1L314.5,436.1z"/>
			<path class="st2" d="M379.4,477l29.2-86.7h10.3L389.6,477H379.4z"/>
			<path class="st2" d="M482.6,445L426,472.2v-10.6l45.7-21v-0.3l-45.7-21v-10.6l56.7,27.2L482.6,445L482.6,445z"/>
		</g>
	</g>
</g>
</svg>
